<svg xmlns="http://www.w3.org/2000/svg" viewBox="0 0 260.82 45.57"><defs><style>.cls-1{fill:#f7931e;}.cls-2{fill:#fff;}</style></defs><title>calCountHorz</title><g id="Layer_2" data-name="Layer 2"><g id="Layer_1-2" data-name="Layer 1"><path d="M22.17,42.62l-7.39,0C6.36,42.69,0,35.39,0,27.58s6.23-15.16,14.65-15.2l7.39,0,0,10.41-4.06,0c-4.06,0-5.81,1.72-5.79,4.75s1.78,4.71,5.83,4.7l4.06,0Z"/><path d="M46.87,42.51,46.8,27.37A4.33,4.33,0,0,0,42.3,23a4.13,4.13,0,0,0-4.22,4.38,4.11,4.11,0,0,0,4,4.34,9.13,9.13,0,0,0,3.15-.68l.05,11.87a38.62,38.62,0,0,1-4.18.32,15.14,15.14,0,0,1-15.2-14.89c0-10.05,7.07-16.8,15.67-16.84C50.54,11.49,59,17,59,30.71l.05,11.75Z"/><path d="M63.2.05,75.31,0l.19,42.38-12.11.05Z"/><path d="M101.22,15.63l-4.14,0c-7.26,0-12.22,5-12.19,12.17s5,12.1,12.29,12.06l4.14,0v2.4l-4.26,0c-8.28,0-14.54-5.81-14.58-14.45S88.67,13.28,97,13.25l4.26,0Z"/><path d="M134,27.9a14.41,14.41,0,1,1-28.8.13A14.41,14.41,0,1,1,134,27.9Zm-26.4.12c0,6.6,5.1,12.64,12.06,12.61s12-6.11,11.94-12.71-5.1-12.64-12.06-12.61S107.61,21.42,107.64,28Z"/><path d="M141.53,13.65l.08,17c0,5.94,4.18,9.82,9.16,9.8s9.1-3.94,9.08-9.88l-.08-17h2.28l.08,17.34c0,7-5,11.72-11.35,11.75S139.36,38,139.33,31l-.08-17.34Z"/><path d="M189.3,41.88l-.08-17c0-5.94-4.18-9.82-9.16-9.8S171,19,171,24.92l.08,17h-2.28l-.08-17.34c0-7,5-11.72,11.35-11.75s11.42,4.63,11.45,11.65l.08,17.34Z"/><path d="M200.34,13.39l10.08,0V15.5l-10.08,0,.08,18.36c0,3.6,2.19,5.75,5.55,5.74l4.56,0v2.16l-4.08,0c-5.4,0-8.29-3.08-8.32-8.12L198,5.6h2.28Z"/><circle class="cls-1" cx="239.63" cy="24.38" r="21.19" transform="matrix(1, 0, 0, 1, -0.11, 1.07)"/><polygon class="cls-2" points="254.35 21.73 242.2 21.79 242.15 9.64 236.98 9.67 237.03 21.81 224.89 21.86 224.91 27.03 237.06 26.98 237.11 39.12 242.28 39.1 242.22 26.95 254.37 26.9 254.35 21.73"/></g></g></svg>