<svg xmlns="http://www.w3.org/2000/svg" viewBox="0 0 128.44 78.86"><defs><style>.cls-1{fill:#f7931e;}.cls-2{fill:#fff;}</style></defs><title>calountOrange</title><g id="Layer_2" data-name="Layer 2"><g id="Layer_1-2" data-name="Layer 1"><path d="M22.1,42.46H14.71C6.3,42.46,0,35.13,0,27.32S6.3,12.19,14.71,12.19H22.1V22.6H18c-4.06,0-5.81,1.7-5.81,4.72S14,32,18,32H22.1Z"/><path d="M46.8,42.46V27.32A4.33,4.33,0,0,0,42.32,23a4.13,4.13,0,0,0-4.24,4.36A4.11,4.11,0,0,0,42,31.68,9.15,9.15,0,0,0,45.17,31V42.88a38.64,38.64,0,0,1-4.18.3,15.14,15.14,0,0,1-15.14-15c0-10.05,7.14-16.77,15.74-16.77C50.61,11.46,59,17,59,30.71V42.46Z"/><path d="M63.32.08H75.43V42.46H63.32Z"/><path d="M19.24,51.62H15.1c-7.26,0-12.24,4.92-12.24,12.12s5,12.12,12.24,12.12h4.14v2.4H15C6.7,78.26.46,72.38.46,63.74S6.7,49.22,15,49.22h4.26Z"/><path d="M52,64A14.41,14.41,0,1,1,37.6,49.22,14.57,14.57,0,0,1,52,64ZM25.6,64c0,6.6,5,12.66,12,12.66s12-6.06,12-12.66-5-12.66-12-12.66S25.6,57.44,25.6,64Z"/><path d="M59.56,49.82v17c0,5.94,4.14,9.84,9.12,9.84s9.12-3.9,9.12-9.84v-17h2.28V67.16c0,7-5,11.7-11.4,11.7s-11.4-4.68-11.4-11.7V49.82Z"/><path d="M107.2,78.26v-17c0-5.94-4.14-9.84-9.12-9.84S89,55.28,89,61.22v17H86.68V60.92c0-7,5-11.7,11.4-11.7s11.4,4.68,11.4,11.7V78.26Z"/><path d="M118.36,49.82h10.08V52H118.36V70.34c0,3.6,2.16,5.76,5.52,5.76h4.56v2.16h-4.08c-5.4,0-8.28-3.12-8.28-8.16V42h2.28Z"/><circle class="cls-1" cx="102.64" cy="21.19" r="21.19"/><polygon class="cls-2" points="117.37 18.6 105.23 18.6 105.23 6.46 100.06 6.46 100.06 18.6 87.92 18.6 87.92 23.77 100.06 23.77 100.06 35.92 105.23 35.92 105.23 23.77 117.37 23.77 117.37 18.6"/></g></g></svg>